<?xml version="1.0" encoding="iso-8859-1"?>
<!-- Generator: Adobe Illustrator 19.0.0, SVG Export Plug-In . SVG Version: 6.00 Build 0)  -->
<svg version="1.1" id="Layer_1" xmlns="http://www.w3.org/2000/svg" xmlns:xlink="http://www.w3.org/1999/xlink" x="0px" y="0px"
	 viewBox="0 0 512 512" style="enable-background:new 0 0 512 512;" xml:space="preserve">
<g>
	<path style="fill:#F29C1F;" d="M0,150.069v158.897c0,63.382,51.377,114.759,114.759,114.759h61.793
		c14.627,0,26.483-11.855,26.483-26.483c0-14.627-11.855-26.483-26.483-26.483h-52.966c-39,0-70.621-31.62-70.621-70.621V158.897
		c0-39,31.62-70.621,70.621-70.621h264.828c39,0,70.621,31.62,70.621,70.621v141.241c0,39-31.62,70.621-70.621,70.621h-26.483
		v-52.966L256,397.241l105.931,79.448v-52.966h35.31c63.382,0,114.759-51.377,114.759-114.759V150.069
		C512,86.687,460.623,35.31,397.241,35.31H114.759C51.377,35.31,0,86.687,0,150.069"/>
</g>
<g>
</g>
<g>
</g>
<g>
</g>
<g>
</g>
<g>
</g>
<g>
</g>
<g>
</g>
<g>
</g>
<g>
</g>
<g>
</g>
<g>
</g>
<g>
</g>
<g>
</g>
<g>
</g>
<g>
</g>
</svg>
